<svg xmlns="http://www.w3.org/2000/svg" width="88" height="43" fill="none"><g fill="#163300" clip-path="url(#a)"><path d="M41.58 22.233V32.73h-3.3V6.77h8.58c2.09 0 4.07.79 5.61 2.258 1.54 1.354 2.31 3.386 2.31 5.53s-.77 4.063-2.31 5.53c-1.54 1.467-3.41 2.257-5.61 2.257l-5.28-.113Zm0-12.301v9.028h5.5c1.21 0 2.42-.451 3.19-1.354 1.76-1.693 1.76-4.514.11-6.207l-.11-.113c-.88-.903-1.98-1.467-3.19-1.354h-5.5ZM62.37 14.447c2.42 0 4.29.677 5.72 2.032 1.43 1.354 2.09 3.16 2.09 5.417v10.835H67.1v-2.483h-.11c-1.32 2.031-3.19 3.047-5.39 3.047-1.87 0-3.52-.564-4.84-1.693-1.21-1.128-1.98-2.709-1.98-4.401 0-1.806.66-3.273 1.98-4.402 1.32-1.129 3.19-1.58 5.39-1.58 1.98 0 3.52.338 4.73 1.128v-.79c0-1.128-.44-2.257-1.32-2.934-.88-.79-1.98-1.241-3.19-1.241-1.87 0-3.3.79-4.29 2.37l-2.86-1.806c1.76-2.37 4.07-3.499 7.15-3.499Zm-4.18 12.866c0 .903.44 1.693 1.1 2.145.77.564 1.65.903 2.53.903 1.32 0 2.64-.565 3.63-1.58 1.1-1.016 1.65-2.258 1.65-3.612-.99-.79-2.42-1.241-4.29-1.241-1.32 0-2.42.338-3.3 1.015-.88.565-1.32 1.355-1.32 2.37ZM88 15.012l-10.89 25.62h-3.3l4.07-8.917-7.15-16.59h3.52l5.17 12.753h.11l5.06-12.753H88v-.113ZM28.49 19.977c0-1.016-.11-2.032-.22-3.047H14.52v5.756h7.81c-.33 1.805-1.32 3.498-2.86 4.514v3.724h4.73c2.75-2.595 4.29-6.433 4.29-10.947Z"/><path d="M14.52 34.535c3.96 0 7.26-1.354 9.68-3.611l-4.73-3.725c-1.32.903-2.97 1.467-4.95 1.467-3.74 0-7.04-2.596-8.14-6.207H1.54v3.837c2.53 5.079 7.48 8.24 12.98 8.24Z"/><path d="M6.38 22.46c-.66-1.805-.66-3.837 0-5.756v-3.837H1.54c-2.09 4.176-2.09 9.142 0 13.43l4.84-3.837Z"/><path d="M14.52 10.61c2.09 0 4.07.79 5.61 2.256l4.18-4.288c-2.64-2.483-6.16-3.95-9.68-3.838-5.5 0-10.56 3.16-12.98 8.24l4.84 3.837c.99-3.612 4.29-6.208 8.03-6.208Z"/></g><defs><clipPath id="a"><path fill="#fff" d="M0 0h88v43H0z"/></clipPath></defs></svg>