<svg xmlns="http://www.w3.org/2000/svg" width="186" height="38" fill="none"><g fill="#163300" clip-path="url(#a)"><path d="M48.608 27.841c0 .527-.206 1.034-.575 1.408l-8.813 8.913a.784.784 0 0 1-1.343-.563V17.644l10.611-10.67h.124l-.004 20.867Z"/><path d="M41.576-.156a.785.785 0 0 0-.858-.173.787.787 0 0 0-.255.173L27.359 13.095h-.182v14.957l.182.393 21.25-21.49-7.033-7.111ZM6.105 27.841c0 .53.207 1.034.576 1.408l8.813 8.913a.784.784 0 0 0 .858.173.789.789 0 0 0 .485-.736V17.644L6.23 6.974h-.123l-.002 20.867Z"/><path d="M14.253-.156a.787.787 0 0 0-.556-.234.778.778 0 0 0-.557.234L6.105 6.956l21.252 21.49v-15.35L14.253-.155ZM61.799 27.84V7.932h5.246v2.672c1.212-2.027 2.972-3.043 5.357-3.043 2.385 0 4.183 1.04 5.467 3.191 2.055-2.189 3.632-3.191 6.09-3.191 4.44 0 6.937 2.522 6.937 7.162v13.134h-5.65V17.06c0-2.783-.586-4.044-2.752-4.044-2.201 0-3.391 1.371-3.391 4.044v10.797h-5.705V17.06c0-2.783-.585-4.044-2.751-4.044-2.202 0-3.392 1.371-3.392 4.044v10.797l-5.456-.017ZM97.87 10.512a10.312 10.312 0 0 1 11.275-2.362 10.425 10.425 0 0 1 4.693 3.803 10.612 10.612 0 0 1 1.829 5.794c0 3.006-.992 5.49-2.973 7.496a10.157 10.157 0 0 1-7.484 3.118c-3.01 0-5.43-1.04-7.45-3.192a10.477 10.477 0 0 1-2.898-7.347c-.005-1.36.259-2.707.775-3.962a10.215 10.215 0 0 1 2.233-3.348Zm7.375 12.282c2.568 0 4.661-2.19 4.661-4.899 0-2.747-2.093-4.934-4.661-4.934-2.568 0-4.66 2.189-4.66 4.934 0 2.71 2.127 4.899 4.66 4.899Zm14.387 5.046V7.932h5.504l-.074 2.672c1.211-2.003 3.044-3.043 5.65-3.043 4.073 0 6.715 2.597 6.715 7.162v13.134h-5.796V17.06c0-2.783-.586-4.044-2.826-4.044-2.276 0-3.484 1.371-3.484 4.044v10.797l-5.689-.017Zm42.636-17.328a10.31 10.31 0 0 1 11.276-2.363 10.425 10.425 0 0 1 4.693 3.803 10.606 10.606 0 0 1 1.828 5.795c0 3.006-.991 5.49-2.972 7.496a10.158 10.158 0 0 1-7.485 3.118c-3.009 0-5.431-1.04-7.449-3.192a10.479 10.479 0 0 1-2.899-7.347c-.004-1.36.259-2.707.776-3.962a10.227 10.227 0 0 1 2.232-3.348Zm7.376 12.282c2.568 0 4.66-2.19 4.66-4.899 0-2.747-2.092-4.934-4.66-4.934-2.569 0-4.661 2.189-4.661 4.934 0 2.71 2.128 4.899 4.661 4.899Zm-27.843 5.046v-4.156l8.109-10.612h-8.109v-5.14h14.641v4.713L149.29 22.7h7.301v5.157l-14.789-.017Z"/></g><defs><clipPath id="a"><path fill="#fff" d="M.586 0h185v38h-185z"/></clipPath></defs></svg>