<svg width="57" height="31" viewBox="0 0 57 31" fill="none" xmlns="http://www.w3.org/2000/svg"><g clip-path="url(#clip0_2629_3643)"><path d="M10.2894 2.95709C12.0919 1.0904 14.4828 0 17.2917 0C22.7638 0 26.3919 3.9384 27.086 9.83838C27.3111 11.7544 27.309 14.4557 27.3067 17.5845C27.3063 17.9053 27.3063 18.2307 27.3063 18.5602V30.2812H19.7811V21.612C19.7811 21.612 19.7658 14.1924 19.7198 12.8057C19.5178 6.76626 15.8908 2.97139 10.2887 2.96731C8.59846 4.72758 7.69283 6.87983 7.55927 10.1707C7.54091 10.6297 7.54553 12.2566 7.55162 14.4008C7.55478 15.5118 7.55832 16.7617 7.55927 18.0599C7.56485 23.7106 7.55927 30.2824 7.55927 30.2824H0.0340696V16.9406C0.0340696 16.4835 0.0256117 16.0224 0.0171343 15.5596C6.72882e-05 14.6285 -0.017135 13.6903 0.0340696 12.7612C0.119092 11.2125 0.390883 9.68997 1.12402 8.27561C2.80216 5.0354 6.24067 2.94914 9.9064 2.94914C10.0345 2.94914 10.1626 2.95225 10.2894 2.95709Z" fill="#163300"/><path d="M56.9668 18.2378C57.018 17.3088 57.0008 16.3705 56.9838 15.4395C56.9752 14.9766 56.9668 14.5156 56.9668 14.0584V0.716604H49.4417C49.4417 0.716604 49.4361 7.28844 49.4417 12.939C49.4426 14.2373 49.4461 15.487 49.4493 16.598C49.4554 18.7424 49.46 20.3693 49.4417 20.8283C49.3082 24.1192 48.4024 26.2714 46.7123 28.0317C41.1103 28.0279 37.4833 24.2327 37.2812 18.1934C37.2353 16.8067 37.2158 13.3656 37.2158 9.38012V0.710938L29.6962 0.71771V12.4387C29.6962 12.7682 29.6958 13.0935 29.6958 13.4144C29.6934 16.5432 29.6915 19.2444 29.9165 21.1605C30.6092 27.0605 34.2372 30.9989 39.7093 30.9989C42.5183 30.9989 44.9093 29.9085 46.7118 28.0418C46.8384 28.0466 46.9665 28.0495 47.0945 28.0495C50.7602 28.0495 54.1988 25.9633 55.877 22.7231C56.6101 21.3086 56.8818 19.7862 56.9669 18.2375L56.9668 18.2378Z" fill="#163300"/></g><defs><clipPath id="clip0_2629_3643"><rect width="57" height="31" fill="white"/></clipPath></defs></svg>
