<svg xmlns="http://www.w3.org/2000/svg" width="135" height="52" fill="none"><g fill="#163300" clip-path="url(#a)"><path d="M25.776 51.24 3.82 37.12S1.068 35.557.437 32.645c-.885-4.09 2.033-7.597 2.033-7.597l28.494 18.33a4.673 4.673 0 0 1 1.385 6.493c-1.452 2.243-4.434 2.738-6.574 1.368ZM4.98 22.023s-3.362-2.006-3.362-6.645c0-4.623 3.361-6.605 3.361-6.605l12.003-7.759a4.8 4.8 0 0 1 3.555-.621 4.751 4.751 0 0 1 2.97 2.027 4.645 4.645 0 0 1 .67 3.505 4.69 4.69 0 0 1-2.017 2.958l-10.116 6.506 17.235 11.088s3.103 1.756 3.714 4.72c.853 4.135-2.028 7.542-2.028 7.542L4.98 22.023Zm-.063 29.965c1.126 0 1.928-.353 2.71-.854l5.86-3.77-5.86-3.77c-.789-.502-1.618-.853-2.71-.853a4.734 4.734 0 0 0-1.812.333c-.576.228-1.1.567-1.542.997-.441.43-.792.943-1.032 1.509a4.575 4.575 0 0 0 0 3.57c.24.565.59 1.077 1.032 1.508a4.73 4.73 0 0 0 3.353 1.33Z"/><path d="M27.572 10.766c-1.127 0-1.929.353-2.711.853L19 15.39l5.86 3.77c.79.502 1.619.854 2.711.854.615 0 1.224-.12 1.791-.352a4.687 4.687 0 0 0 1.52-1.002c.434-.43.779-.94 1.014-1.5a4.575 4.575 0 0 0-1.015-5.04 4.73 4.73 0 0 0-3.31-1.354ZM51.948 37.31c1.24 0 2.394-.332 3.297-1.1v1.722c-1.008.685-2.205.975-3.465.975-3.173 0-5.377-2.178-5.377-5.31 0-3.113 2.268-5.29 5.419-5.29 1.239 0 2.393.353 3.318 1.037v1.887c-.82-.87-1.953-1.327-3.214-1.327-2.205 0-3.759 1.515-3.759 3.692 0 2.178 1.576 3.714 3.781 3.714Zm6.888 1.41h-1.701V25.253l1.701 1.039v3.945c.777-1.182 2.016-1.928 3.591-1.928 2.605 0 3.99 1.887 3.99 4.397v6.016h-1.721v-5.726c0-1.991-.882-3.049-2.689-3.049-1.91 0-3.172 1.618-3.172 3.651l.001 5.124Zm18.145-1.743c-.86 1.203-2.184 1.93-3.8 1.93-3.025 0-5.188-2.22-5.188-5.25 0-3.089 2.163-5.351 5.187-5.351 1.617 0 2.94.747 3.801 1.971v-1.785h1.723V38.72H76.98v-1.742Zm-7.224-3.34c0 2.116 1.491 3.672 3.591 3.672 2.121 0 3.633-1.556 3.633-3.672 0-2.157-1.512-3.734-3.633-3.734-2.1.002-3.59 1.578-3.59 3.736v-.002Zm13.294 5.084H81.35V28.494h1.7v2.178c.82-1.515 2.143-2.365 3.781-2.365v1.93c-2.058-.29-3.78 1.078-3.78 3.609v4.875Zm21.211-4.46h-8.17c.253 1.846 1.723 3.07 3.78 3.07 1.324 0 2.605-.373 3.697-1.141v1.618c-1.113.747-2.373 1.1-3.696 1.1-3.256 0-5.586-2.075-5.586-5.209 0-3.07 1.974-5.393 5.104-5.393 2.982 0 4.935 2.178 4.935 5.103.001.285-.021.57-.064.852Zm-8.148-1.368h6.405c-.168-1.743-1.281-3.03-3.108-3.03-1.89 0-3.025 1.307-3.297 3.029Zm11.781 5.828h-1.701V28.494h1.701v2.178c.819-1.515 2.142-2.365 3.78-2.365v1.93c-2.057-.29-3.78 1.078-3.78 3.609v4.875Zm13.882-4.46h-8.169c.251 1.846 1.722 3.07 3.78 3.07 1.323 0 2.604-.373 3.696-1.141v1.618c-1.113.747-2.373 1.1-3.696 1.1-3.255 0-5.586-2.075-5.586-5.209 0-3.07 1.974-5.393 5.104-5.393 2.981 0 4.935 2.178 4.935 5.103 0 .285-.021.57-.064.852Zm-8.148-1.368h6.405c-.168-1.743-1.281-3.03-3.108-3.03-1.89 0-3.023 1.307-3.297 3.029Zm18.36 4.072c-.839 1.224-2.184 1.97-3.801 1.97-3.024 0-5.187-2.22-5.187-5.248 0-3.09 2.163-5.352 5.187-5.352 1.617 0 2.962.768 3.801 2.012v-5.093l1.723 1.04V38.72h-1.723v-1.755Zm-7.224-3.299c0 2.116 1.491 3.673 3.591 3.673 2.121 0 3.633-1.557 3.633-3.673 0-2.157-1.512-3.734-3.633-3.734-2.1 0-3.591 1.576-3.591 3.734Zm-34.962 1.656c0 1.43.883 1.991 1.996 1.991a4.144 4.144 0 0 0 2.415-.747v1.64c-.715.518-1.701.725-2.562.725-2.206 0-3.55-.975-3.55-3.734v-9.948l1.701 1.04v9.032Zm2.75-6.962a1.323 1.323 0 0 0-1.817.383 1.29 1.29 0 0 0 .02 1.441c.098.14.223.26.367.354l.037.022a1.325 1.325 0 0 0 1.415 0l1.692-1.072-1.714-1.128Zm-42.6-5.798c1.217 0 2.1-.518 2.1-1.452 0-.56-.294-.996-1.073-1.307l-2.457-.975c-1.26-.54-1.953-1.245-1.953-2.573 0-1.784 1.449-2.904 3.549-2.904 1.217 0 2.352.332 3.15.934v1.765c-.945-.83-2.1-1.307-3.128-1.307-1.093 0-1.87.498-1.87 1.328 0 .622.294.996 1.114 1.307l2.457.975c1.323.56 1.933 1.348 1.933 2.448 0 1.95-1.597 3.153-3.843 3.153-1.366 0-2.605-.374-3.508-1.037V21.09c1.092 1.016 2.31 1.473 3.529 1.473Zm7.056-2.22c0 1.432.882 1.992 1.996 1.992a4.146 4.146 0 0 0 2.412-.747v1.639c-.714.518-1.701.726-2.562.726-2.205 0-3.549-.975-3.549-3.734v-8.916l1.701-1.04.002 10.08Zm13.924 1.68c-.861 1.204-2.184 1.93-3.801 1.93-3.024 0-5.188-2.22-5.188-5.249 0-3.09 2.164-5.352 5.188-5.352 1.617 0 2.94.747 3.801 1.971V13.54h1.722v10.226h-1.722v-1.743Zm-7.225-3.34c0 2.117 1.492 3.673 3.592 3.673 2.121 0 3.633-1.556 3.633-3.672 0-2.158-1.512-3.735-3.633-3.735-2.1 0-3.591 1.577-3.591 3.735Zm13.294 5.083h-1.701V13.54h1.701v1.743c.777-1.183 2.016-1.93 3.591-1.93 2.605 0 3.99 1.889 3.99 4.399v6.016h-1.721V18.04c0-1.991-.882-3.05-2.688-3.05-1.912 0-3.173 1.619-3.173 3.652l.001 5.122Zm18.146-1.784c-.84 1.224-2.184 1.971-3.802 1.971-3.024 0-5.187-2.22-5.187-5.249 0-3.09 2.163-5.352 5.187-5.352 1.617 0 2.962.768 3.802 2.012V11.3l1.722-1.038v13.503h-1.722v-1.784Zm-7.225-3.298c0 2.116 1.492 3.672 3.591 3.672 2.122 0 3.634-1.556 3.634-3.672 0-2.158-1.512-3.735-3.634-3.735-2.098 0-3.59 1.577-3.59 3.735Zm38.728 3.298c-.84 1.224-2.185 1.971-3.802 1.971-3.024 0-5.187-2.22-5.187-5.249 0-3.09 2.163-5.352 5.187-5.352 1.617 0 2.962.768 3.802 2.012V11.3l1.722-1.038v13.503h-1.722v-1.784Zm-7.225-3.298c0 2.116 1.491 3.672 3.591 3.672 2.121 0 3.634-1.556 3.634-3.672 0-2.158-1.513-3.735-3.634-3.735-2.099 0-3.591 1.577-3.591 3.735Zm-11.719 3.34c-.861 1.203-2.184 1.929-3.801 1.929-3.024 0-5.188-2.22-5.188-5.249 0-3.09 2.164-5.352 5.188-5.352 1.617 0 2.94.747 3.801 1.971V13.54h1.722v10.226h-1.722v-1.743Zm-7.225-3.34c0 2.116 1.492 3.672 3.592 3.672 2.121 0 3.633-1.556 3.633-3.672 0-2.158-1.512-3.735-3.633-3.735-2.102 0-3.592 1.577-3.592 3.735Zm13.294 5.082h-1.701V13.54h1.701v2.178c.819-1.514 2.142-2.365 3.78-2.365v1.93c-2.058-.29-3.78 1.078-3.78 3.61v4.873Zm-54.369-8.048a1.325 1.325 0 0 0 1.747-.279 1.292 1.292 0 0 0 .255-1.084 1.305 1.305 0 0 0-.577-.817l-.036-.022a1.323 1.323 0 0 0-1.416.004l-1.69 1.076 1.717 1.122Z"/></g><defs><clipPath id="a"><path fill="#fff" d="M.086 0h134v52h-134z"/></clipPath></defs></svg>